<svg width="20" height="27" viewBox="0 0 20 27" fill="none" xmlns="http://www.w3.org/2000/svg">
<path d="M19.7746 17.0348L17.6923 14.6473V11.4847C17.6899 9.29909 16.9808 7.19213 15.702 5.57124C14.4233 3.95035 12.6657 2.93066 10.7692 2.70935V0.901367H9.23077V2.70935C7.33429 2.93066 5.57674 3.95035 4.29798 5.57124C3.01921 7.19213 2.31008 9.29909 2.30769 11.4847V14.6473L0.225385 17.0348C0.0811159 17.2001 4.35672e-05 17.4244 0 17.6583V20.3041C0 20.538 0.0810437 20.7624 0.225302 20.9277C0.369561 21.0931 0.565218 21.1861 0.769231 21.1861H6.15385V22.068C6.15385 23.2375 6.55906 24.3592 7.28036 25.1861C8.00165 26.0131 8.97994 26.4777 10 26.4777C11.0201 26.4777 11.9983 26.0131 12.7196 25.1861C13.4409 24.3592 13.8462 23.2375 13.8462 22.068V21.1861H19.2308C19.4348 21.1861 19.6304 21.0931 19.7747 20.9277C19.919 20.7624 20 20.538 20 20.3041V17.6583C20 17.4244 19.9189 17.2001 19.7746 17.0348ZM12.3077 22.068C12.3077 22.7697 12.0646 23.4427 11.6318 23.9389C11.199 24.4351 10.612 24.7138 10 24.7138C9.38796 24.7138 8.80099 24.4351 8.36821 23.9389C7.93544 23.4427 7.69231 22.7697 7.69231 22.068V21.1861H12.3077V22.068Z" fill="white"/>
</svg>
