<svg width="24" height="24" viewBox="0 0 24 24" fill="none" xmlns="http://www.w3.org/2000/svg">
<path fill-rule="evenodd" clip-rule="evenodd" d="M10 1.99992C10.0002 1.79137 9.93519 1.58797 9.81406 1.41821C9.69293 1.24844 9.52175 1.12079 9.32448 1.05312C9.12721 0.985457 8.91373 0.98116 8.71389 1.04083C8.51406 1.10051 8.33789 1.22116 8.21002 1.38592L1.21002 10.3859C1.07347 10.5615 0.999329 10.7775 0.999329 10.9999C0.999329 11.2223 1.07347 11.4384 1.21002 11.6139L8.21002 20.6139C8.33789 20.7787 8.51406 20.8993 8.71389 20.959C8.91373 21.0187 9.12721 21.0144 9.32448 20.9467C9.52175 20.879 9.69293 20.7514 9.81406 20.5816C9.93519 20.4119 10.0002 20.2085 10 19.9999V16.0099C15.379 16.1219 17.963 17.1429 19.261 18.2529C20.495 19.3079 20.721 20.5489 20.956 21.8489L21.017 22.1839C21.0619 22.4236 21.1928 22.6387 21.3852 22.7886C21.5775 22.9385 21.818 23.013 22.0614 22.998C22.3048 22.983 22.5344 22.8796 22.7069 22.7072C22.8794 22.5348 22.9829 22.3053 22.998 22.0619C23.169 19.3139 22.912 15.3319 20.971 12.0009C19.087 8.76792 15.694 6.28192 10 6.02192V1.99992Z" fill="white"/>
</svg>
